<mxfile host="app.diagrams.net" agent="Mozilla/5.0 (Windows NT 10.0; Win64; x64) AppleWebKit/537.36 (KHTML, like Gecko) Chrome/130.0.0.0 Safari/537.36" version="24.8.3">
  <diagram name="Page-1" id="13e1069c-82ec-6db2-03f1-153e76fe0fe0">
    <mxGraphModel dx="1430" dy="781" grid="1" gridSize="10" guides="1" tooltips="1" connect="1" arrows="1" fold="1" page="1" pageScale="1" pageWidth="1400" pageHeight="850" background="none" math="0" shadow="0">
      <root>
        <mxCell id="0" />
        <mxCell id="1" parent="0" />
        <mxCell id="7baba1c4bc27f4b0-2" value="Interface&lt;div style=&quot;font-size: 12px;&quot;&gt;&quot;Atualizar Cliente&quot;&amp;nbsp;&lt;/div&gt;" style="shape=umlLifeline;perimeter=lifelinePerimeter;whiteSpace=wrap;html=1;container=1;collapsible=0;recursiveResize=0;outlineConnect=0;rounded=1;shadow=0;comic=0;labelBackgroundColor=none;strokeWidth=1;fontFamily=Verdana;fontSize=12;align=center;" parent="1" vertex="1">
          <mxGeometry x="430" y="74" width="230" height="751" as="geometry" />
        </mxCell>
        <mxCell id="7baba1c4bc27f4b0-10" value="" style="html=1;points=[];perimeter=orthogonalPerimeter;rounded=0;shadow=0;comic=0;labelBackgroundColor=none;strokeWidth=1;fontFamily=Verdana;fontSize=12;align=center;" parent="7baba1c4bc27f4b0-2" vertex="1">
          <mxGeometry x="110" y="81" width="10" height="620" as="geometry" />
        </mxCell>
        <mxCell id="i20f5D9uLhxDCImRe5Bx-4" value="" style="endArrow=classic;html=1;rounded=0;entryX=0.96;entryY=0.529;entryDx=0;entryDy=0;entryPerimeter=0;" edge="1" parent="7baba1c4bc27f4b0-2">
          <mxGeometry width="50" height="50" relative="1" as="geometry">
            <mxPoint x="355" y="527" as="sourcePoint" />
            <mxPoint x="120" y="526" as="targetPoint" />
            <Array as="points">
              <mxPoint x="149.28999999999996" y="526" />
            </Array>
          </mxGeometry>
        </mxCell>
        <mxCell id="7baba1c4bc27f4b0-3" value="Cliente" style="shape=umlLifeline;perimeter=lifelinePerimeter;whiteSpace=wrap;html=1;container=1;collapsible=0;recursiveResize=0;outlineConnect=0;rounded=1;shadow=0;comic=0;labelBackgroundColor=none;strokeWidth=1;fontFamily=Verdana;fontSize=12;align=center;" parent="1" vertex="1">
          <mxGeometry x="730" y="74" width="120" height="761" as="geometry" />
        </mxCell>
        <mxCell id="7baba1c4bc27f4b0-13" value="" style="html=1;points=[];perimeter=orthogonalPerimeter;rounded=0;shadow=0;comic=0;labelBackgroundColor=none;strokeWidth=1;fontFamily=Verdana;fontSize=12;align=center;" parent="7baba1c4bc27f4b0-3" vertex="1">
          <mxGeometry x="55" y="80" width="10" height="640" as="geometry" />
        </mxCell>
        <mxCell id="7baba1c4bc27f4b0-8" value="Rececionista" style="shape=umlLifeline;perimeter=lifelinePerimeter;whiteSpace=wrap;html=1;container=1;collapsible=0;recursiveResize=0;outlineConnect=0;rounded=1;shadow=0;comic=0;labelBackgroundColor=none;strokeWidth=1;fontFamily=Verdana;fontSize=12;align=center;" parent="1" vertex="1">
          <mxGeometry x="240" y="79" width="120" height="751" as="geometry" />
        </mxCell>
        <mxCell id="jpCe2Csj7cK2ZQe0Vtn_-17" value="" style="endArrow=classic;html=1;rounded=0;entryX=0.006;entryY=0.424;entryDx=0;entryDy=0;entryPerimeter=0;exitX=1.033;exitY=0.428;exitDx=0;exitDy=0;exitPerimeter=0;" parent="1" edge="1">
          <mxGeometry width="50" height="50" relative="1" as="geometry">
            <mxPoint x="304.99999999999994" y="400.054" as="sourcePoint" />
            <mxPoint x="539.7299999999999" y="400" as="targetPoint" />
            <Array as="points" />
          </mxGeometry>
        </mxCell>
        <mxCell id="jpCe2Csj7cK2ZQe0Vtn_-20" value="&lt;div&gt;&lt;br&gt;&lt;/div&gt;&lt;div&gt;&lt;br&gt;&lt;/div&gt;" style="shape=umlActor;verticalLabelPosition=bottom;verticalAlign=top;html=1;outlineConnect=0;" parent="1" vertex="1">
          <mxGeometry x="287.5" y="36.5" width="25" height="40" as="geometry" />
        </mxCell>
        <mxCell id="jpCe2Csj7cK2ZQe0Vtn_-7" value="" style="endArrow=classic;html=1;rounded=0;" parent="1" edge="1">
          <mxGeometry width="50" height="50" relative="1" as="geometry">
            <mxPoint x="300" y="241" as="sourcePoint" />
            <mxPoint x="540" y="240" as="targetPoint" />
          </mxGeometry>
        </mxCell>
        <mxCell id="jpCe2Csj7cK2ZQe0Vtn_-35" value="Cliente" style="shape=umlLifeline;perimeter=lifelinePerimeter;whiteSpace=wrap;html=1;container=1;collapsible=0;recursiveResize=0;outlineConnect=0;rounded=1;shadow=0;comic=0;labelBackgroundColor=none;strokeWidth=1;fontFamily=Verdana;fontSize=12;align=center;" parent="1" vertex="1">
          <mxGeometry x="40" y="76.5" width="120" height="763.5" as="geometry" />
        </mxCell>
        <mxCell id="jpCe2Csj7cK2ZQe0Vtn_-36" value="" style="html=1;points=[];perimeter=orthogonalPerimeter;rounded=0;shadow=0;comic=0;labelBackgroundColor=none;strokeWidth=1;fontFamily=Verdana;fontSize=12;align=center;" parent="jpCe2Csj7cK2ZQe0Vtn_-35" vertex="1">
          <mxGeometry x="55" y="78" width="10" height="612" as="geometry" />
        </mxCell>
        <mxCell id="jpCe2Csj7cK2ZQe0Vtn_-29" value="&lt;div style=&quot;font-size: 12px;&quot;&gt;&lt;span style=&quot;background-color: initial; text-wrap-mode: nowrap; font-size: 12px;&quot;&gt;&lt;font face=&quot;Verdana&quot; style=&quot;font-size: 12px;&quot;&gt;8. Enviar notificação para o cliente&lt;/font&gt;&lt;/span&gt;&lt;/div&gt;&lt;div style=&quot;font-size: 12px;&quot;&gt;&lt;span style=&quot;background-color: initial; text-wrap-mode: nowrap; font-size: 12px;&quot;&gt;&lt;font face=&quot;Verdana&quot; style=&quot;font-size: 12px;&quot;&gt;&quot;Dados atualizar com sucesso&quot;&lt;/font&gt;&lt;/span&gt;&lt;/div&gt;" style="text;whiteSpace=wrap;html=1;fontSize=12;align=center;" parent="1" vertex="1">
          <mxGeometry x="345" y="690" width="160" height="40" as="geometry" />
        </mxCell>
        <mxCell id="SjC08Xs28rp6ZLOFi1u1-16" value="" style="endArrow=classic;html=1;rounded=0;entryX=0.423;entryY=0.661;entryDx=0;entryDy=0;entryPerimeter=0;" parent="1" target="7baba1c4bc27f4b0-9" edge="1">
          <mxGeometry width="50" height="50" relative="1" as="geometry">
            <mxPoint x="300" y="514" as="sourcePoint" />
            <mxPoint x="614" y="516" as="targetPoint" />
            <Array as="points" />
          </mxGeometry>
        </mxCell>
        <mxCell id="7baba1c4bc27f4b0-9" value="" style="html=1;points=[];perimeter=orthogonalPerimeter;rounded=0;shadow=0;comic=0;labelBackgroundColor=none;strokeWidth=1;fontFamily=Verdana;fontSize=12;align=center;" parent="1" vertex="1">
          <mxGeometry x="295" y="154.5" width="10" height="615.5" as="geometry" />
        </mxCell>
        <mxCell id="SjC08Xs28rp6ZLOFi1u1-18" value="&lt;div&gt;&lt;br&gt;&lt;/div&gt;&lt;div&gt;&lt;br&gt;&lt;/div&gt;" style="shape=umlActor;verticalLabelPosition=bottom;verticalAlign=top;html=1;outlineConnect=0;" parent="1" vertex="1">
          <mxGeometry x="87.5" y="36.5" width="25" height="40" as="geometry" />
        </mxCell>
        <mxCell id="jpCe2Csj7cK2ZQe0Vtn_-15" value="&lt;div style=&quot;font-size: 12px;&quot;&gt;&lt;span style=&quot;background-color: initial; text-wrap: nowrap; font-size: 12px;&quot;&gt;&lt;font style=&quot;font-size: 12px;&quot; face=&quot;Verdana&quot;&gt;3. Seleciona o Cliente&amp;nbsp;&lt;/font&gt;&lt;/span&gt;&lt;/div&gt;&lt;div style=&quot;font-size: 12px;&quot;&gt;&lt;span style=&quot;background-color: initial; text-wrap: nowrap; font-size: 12px;&quot;&gt;&lt;font style=&quot;font-size: 12px;&quot; face=&quot;Verdana&quot;&gt;desejado&lt;/font&gt;&lt;/span&gt;&lt;/div&gt;" style="text;whiteSpace=wrap;html=1;align=center;fontSize=12;" parent="1" vertex="1">
          <mxGeometry x="355" y="360" width="140" height="40" as="geometry" />
        </mxCell>
        <mxCell id="jpCe2Csj7cK2ZQe0Vtn_-13" value="&lt;div style=&quot;font-size: 12px;&quot;&gt;&lt;span style=&quot;background-color: initial; text-wrap: nowrap; font-size: 12px;&quot;&gt;&lt;font face=&quot;Verdana&quot; style=&quot;font-size: 12px;&quot;&gt;1. Seleciona &quot;Editar /&lt;/font&gt;&lt;/span&gt;&lt;/div&gt;&lt;div style=&quot;font-size: 12px;&quot;&gt;&lt;span style=&quot;background-color: initial; font-family: Verdana; text-wrap-mode: nowrap; font-size: 12px;&quot;&gt;Atualizar Cliente&quot;&lt;/span&gt;&lt;/div&gt;" style="text;whiteSpace=wrap;html=1;fontSize=12;align=center;" parent="1" vertex="1">
          <mxGeometry x="350" y="200" width="140" height="40" as="geometry" />
        </mxCell>
        <mxCell id="jpCe2Csj7cK2ZQe0Vtn_-14" value="&lt;span style=&quot;color: rgb(0, 0, 0); font-family: Verdana; font-size: 12px; font-style: normal; font-variant-ligatures: normal; font-variant-caps: normal; font-weight: 400; letter-spacing: normal; orphans: 2; text-indent: 0px; text-transform: none; widows: 2; word-spacing: 0px; -webkit-text-stroke-width: 0px; white-space: nowrap; background-color: rgb(251, 251, 251); text-decoration-thickness: initial; text-decoration-style: initial; text-decoration-color: initial; float: none; display: inline !important;&quot;&gt;2. Exibe Lista de&amp;nbsp;&lt;/span&gt;&lt;span style=&quot;background-color: initial; font-size: 12px;&quot;&gt;Cliente&lt;/span&gt;" style="text;whiteSpace=wrap;html=1;fontSize=12;align=center;" parent="1" vertex="1">
          <mxGeometry x="345" y="290" width="150" height="29" as="geometry" />
        </mxCell>
        <mxCell id="jpCe2Csj7cK2ZQe0Vtn_-12" value="" style="endArrow=classic;html=1;rounded=0;exitX=0.033;exitY=0.158;exitDx=0;exitDy=0;exitPerimeter=0;" parent="1" edge="1">
          <mxGeometry width="50" height="50" relative="1" as="geometry">
            <mxPoint x="540.3299999999999" y="320.12" as="sourcePoint" />
            <mxPoint x="304.99999999999994" y="320" as="targetPoint" />
            <Array as="points" />
          </mxGeometry>
        </mxCell>
        <mxCell id="jpCe2Csj7cK2ZQe0Vtn_-19" value="" style="endArrow=classic;html=1;rounded=0;entryX=0.96;entryY=0.529;entryDx=0;entryDy=0;entryPerimeter=0;" parent="1" edge="1" target="7baba1c4bc27f4b0-9">
          <mxGeometry width="50" height="50" relative="1" as="geometry">
            <mxPoint x="540" y="481" as="sourcePoint" />
            <mxPoint x="310.0000000000002" y="480.5" as="targetPoint" />
            <Array as="points">
              <mxPoint x="334.28999999999996" y="480" />
            </Array>
          </mxGeometry>
        </mxCell>
        <mxCell id="jpCe2Csj7cK2ZQe0Vtn_-18" value="&lt;span style=&quot;color: rgb(0, 0, 0); font-family: Verdana; font-style: normal; font-variant-ligatures: normal; font-variant-caps: normal; font-weight: 400; letter-spacing: normal; orphans: 2; text-indent: 0px; text-transform: none; widows: 2; word-spacing: 0px; -webkit-text-stroke-width: 0px; white-space: nowrap; background-color: rgb(251, 251, 251); text-decoration-thickness: initial; text-decoration-style: initial; text-decoration-color: initial; float: none; font-size: 12px; display: inline !important;&quot;&gt;4.&amp;nbsp; E&lt;span style=&quot;line-height: 107%; font-size: 12px;&quot;&gt;xibe as informações atuais&amp;nbsp;&lt;/span&gt;&lt;/span&gt;&lt;div style=&quot;font-size: 12px;&quot;&gt;&lt;span style=&quot;color: rgb(0, 0, 0); font-family: Verdana; font-style: normal; font-variant-ligatures: normal; font-variant-caps: normal; font-weight: 400; letter-spacing: normal; orphans: 2; text-indent: 0px; text-transform: none; widows: 2; word-spacing: 0px; -webkit-text-stroke-width: 0px; white-space: nowrap; background-color: rgb(251, 251, 251); text-decoration-thickness: initial; text-decoration-style: initial; text-decoration-color: initial; float: none; font-size: 12px; display: inline !important;&quot;&gt;&lt;span style=&quot;line-height: 107%; font-size: 12px;&quot;&gt;do cliente&amp;nbsp;&lt;/span&gt;&lt;br style=&quot;font-size: 12px;&quot;&gt;&lt;/span&gt;&lt;/div&gt;" style="text;whiteSpace=wrap;html=1;align=center;fontSize=12;" parent="1" vertex="1">
          <mxGeometry x="320" y="434.5" width="210" height="40" as="geometry" />
        </mxCell>
        <mxCell id="jpCe2Csj7cK2ZQe0Vtn_-24" value="" style="endArrow=classic;html=1;rounded=0;exitX=0.857;exitY=0.625;exitDx=0;exitDy=0;exitPerimeter=0;" parent="1" source="7baba1c4bc27f4b0-9" target="7baba1c4bc27f4b0-3" edge="1">
          <mxGeometry width="50" height="50" relative="1" as="geometry">
            <mxPoint x="308.5" y="541" as="sourcePoint" />
            <mxPoint x="541.5" y="540" as="targetPoint" />
            <Array as="points" />
          </mxGeometry>
        </mxCell>
        <mxCell id="i20f5D9uLhxDCImRe5Bx-5" value="" style="endArrow=classic;html=1;rounded=0;entryX=0.006;entryY=0.424;entryDx=0;entryDy=0;entryPerimeter=0;exitX=1.033;exitY=0.428;exitDx=0;exitDy=0;exitPerimeter=0;" edge="1" parent="1">
          <mxGeometry width="50" height="50" relative="1" as="geometry">
            <mxPoint x="304.99999999999994" y="650.054" as="sourcePoint" />
            <mxPoint x="539.7299999999999" y="650" as="targetPoint" />
            <Array as="points" />
          </mxGeometry>
        </mxCell>
        <mxCell id="i20f5D9uLhxDCImRe5Bx-6" value="&lt;div style=&quot;font-size: 12px;&quot;&gt;&lt;font face=&quot;Verdana&quot; style=&quot;font-size: 12px;&quot;&gt;&lt;span style=&quot;text-wrap-mode: nowrap; font-size: 12px;&quot;&gt;7. Confirmar a atualização dos dados&lt;/span&gt;&lt;/font&gt;&lt;/div&gt;" style="text;whiteSpace=wrap;html=1;fontSize=12;align=center;" vertex="1" parent="1">
          <mxGeometry x="345" y="620" width="150" height="24" as="geometry" />
        </mxCell>
        <mxCell id="jpCe2Csj7cK2ZQe0Vtn_-39" value="" style="endArrow=classic;html=1;rounded=0;entryX=1.009;entryY=0.973;entryDx=0;entryDy=0;entryPerimeter=0;exitX=0.009;exitY=0.931;exitDx=0;exitDy=0;exitPerimeter=0;" parent="1" edge="1">
          <mxGeometry width="50" height="50" relative="1" as="geometry">
            <mxPoint x="785.0899999999999" y="730.0000000000001" as="sourcePoint" />
            <mxPoint x="105.08999999999992" y="730.1360000000001" as="targetPoint" />
            <Array as="points" />
          </mxGeometry>
        </mxCell>
        <mxCell id="jpCe2Csj7cK2ZQe0Vtn_-28" value="&lt;div style=&quot;font-size: 14px;&quot;&gt;&lt;font style=&quot;font-size: 14px;&quot; face=&quot;Verdana&quot;&gt;&lt;span style=&quot;text-wrap-mode: nowrap; font-size: 14px;&quot;&gt;5. A&lt;/span&gt;&lt;/font&gt;&lt;span style=&quot;font-family: Aptos, sans-serif; background-color: initial; font-size: 14px;&quot;&gt;tualizar os dados&lt;/span&gt;&lt;/div&gt;" style="text;whiteSpace=wrap;html=1;fontSize=14;align=center;" parent="1" vertex="1">
          <mxGeometry x="330" y="510" width="180" height="30" as="geometry" />
        </mxCell>
        <mxCell id="jpCe2Csj7cK2ZQe0Vtn_-27" value="&lt;div style=&quot;&quot;&gt;&lt;font face=&quot;Verdana&quot;&gt;&lt;span style=&quot;text-wrap-mode: nowrap;&quot;&gt;6. Validar os dados alterados&lt;/span&gt;&lt;/font&gt;&lt;/div&gt;" style="text;whiteSpace=wrap;html=1;align=center;" parent="1" vertex="1">
          <mxGeometry x="590" y="570" width="150" height="24" as="geometry" />
        </mxCell>
      </root>
    </mxGraphModel>
  </diagram>
</mxfile>
